<?xml version="1.0" encoding="utf-8"?>
<!-- Svg Vector Icons : http://www.onlinewebfonts.com/icon -->
<!DOCTYPE svg PUBLIC "-//W3C//DTD SVG 1.1//EN" "http://www.w3.org/Graphics/SVG/1.1/DTD/svg11.dtd">
<svg version="1.1" xmlns="http://www.w3.org/2000/svg" xmlns:xlink="http://www.w3.org/1999/xlink" x="0px" y="0px" viewBox="0 0 1000 1000" enable-background="new 0 0 1000 1000" xml:space="preserve">
<metadata> Svg Vector Icons : http://www.onlinewebfonts.com/icon </metadata>
<g><path d="M523,40.6c4.6,0,6.1,0,6.1,0l0,0c0,0,3.1,3.1,4.6,19.9c13.8,81.2,19.9,117.9,44.4,170c13.8,27.6,35.2,55.1,55.1,81.2c18.4,23,35.2,44.4,45.9,64.3l0,0l0,0c19.9,33.7,12.3,93.4-6.1,134.7c-7.7,16.8-26,23-41.3,23c-7.7,0-32.2-1.5-41.3-24.5c-4.6-10.7-7.7-21.4-10.7-32.2c-10.7-36.8-26-88.8-81.2-88.8s-68.9,50.5-81.2,88.8c-3.1,10.7-6.1,21.4-10.7,32.2c-9.2,23-33.7,24.5-41.3,24.5c-13.8,0-33.7-6.1-41.3-23c-18.4-41.3-26-101.1-6.1-134.7c12.3-19.9,23-29.1,45.9-52.1c4.6-4.6,9.2-7.7,13.8-12.3c96.5-88.8,78.1-225.1,70.4-264.9l0,0l0,0c0-1.5-1.5-3.1-1.5-4.6h15.3H523 M523,10h-61.2h-45.9c-1.5,10.7-4.6,18.4,1.5,42.9c9.2,45.9,21.4,162.3-58.2,238.9c-32.2,32.2-47.5,44.4-64.3,72c-26,47.5-13.8,119.4,4.6,162.3c12.3,27.6,39.8,41.3,68.9,41.3c29.1,0,58.2-13.8,68.9-44.4c18.4-49,21.4-101.1,62.8-101.1c41.3,0,44.4,52.1,62.8,101.1c10.7,30.6,39.8,44.4,68.9,44.4c29.1,0,58.2-13.8,68.9-41.3c18.4-42.9,30.6-114.8,4.6-162.3c-24.5-47.5-76.6-96.5-101.1-145.5c-23-45.9-29.1-78.1-41.3-160.8C561.3,28.4,552.1,10,523,10L523,10z"/><path d="M412.7,990l-3.1-104.1c0-45.9-27.6-87.3-47.5-116.4c-26-38.3-50.5-84.2-52.1-133.2c0-15.3,7.7-30.6,23-42.9c12.3,4.6,26,6.1,38.3,6.1c15.3,0,30.6-3.1,44.4-9.2c18.4-7.7,35.2-21.4,47.5-39.8c12.3-1.5,26-1.5,39.8-1.5c13.8,0,26,0,38.3,1.5c10.7,18.4,27.6,32.2,47.5,39.8c13.8,6.1,29.1,9.2,44.4,9.2c13.8,0,26-1.5,38.3-6.1c13.8,12.3,23,27.6,23,42.9c-1.5,39.8-18.4,78.1-39.8,111.8c-13.8,23-30.6,36.8-41.3,45.9c-61.3,55.1-68.9,110.3-62.8,162.3c0,10.7,0,21.4,3.1,32.2L412.7,990z"/></g>
</svg>